PathFileType	4	(X/Y/Z)	C:\Users\italobelli\Desktop\GitHub\PTbot_officialCBL\Personal_Results\FLX22_noisy1.trc
DataRate	CameraRate	NumFrames	NumMarkers	Units	OrigDataRate	OrigDataStartFrame	OrigNumFrames
106.125000	106.125000	51	9	m	106.125000	426	850
Frame#	Time		gu		centelbow		EpL		centpxt8		centijc7		ij		ts		aa		ai
			X1	Y1	Z1	X2	Y2	Z2	X3	Y3	Z3	X4	Y4	Z4	X5	Y5	Z5	X6	Y6	Z6	X7	Y7	Z7	X8	Y8	Z8	X9	Y9	Z9

426	4.0047	-0.112	0.059624	0.10118	-0.034234	0.27702	0.19168	-0.060899	0.28799	0.17725	-0.046816	-0.15316	-0.008669	-0.046816	0.031938	-0.008669	0	0	0	-0.137	-0.025792	0.052148	-0.14334	0.08018	0.10649	-0.11133	-0.070297	0.15337
427	4.0141	-0.1121	0.059656	0.10112	-0.034394	0.27735	0.1917	-0.061062	0.28831	0.17723	-0.046816	-0.15316	-0.008669	-0.046816	0.031938	-0.008669	0	0	0	-0.13702	-0.025771	0.052144	-0.14345	0.080211	0.10644	-0.11138	-0.070221	0.15341
428	4.0236	-0.11218	0.059687	0.10107	-0.034524	0.27767	0.19173	-0.061196	0.2886	0.17723	-0.046816	-0.15316	-0.008669	-0.046816	0.031938	-0.008669	0	0	0	-0.13703	-0.025746	0.052139	-0.14355	0.080246	0.10639	-0.11144	-0.070147	0.15345
429	4.033	-0.11226	0.059716	0.10102	-0.034627	0.27797	0.19177	-0.061303	0.28888	0.17724	-0.046816	-0.15316	-0.008669	-0.046816	0.031938	-0.008669	0	0	0	-0.13705	-0.025716	0.052135	-0.14364	0.080284	0.10635	-0.1115	-0.070074	0.15348
430	4.0424	-0.11233	0.059744	0.10098	-0.034703	0.27824	0.19182	-0.061382	0.28914	0.17726	-0.046816	-0.15316	-0.008669	-0.046816	0.031938	-0.008669	0	0	0	-0.13707	-0.025682	0.052131	-0.14373	0.080325	0.10631	-0.11156	-0.070003	0.1535
431	4.0518	-0.1124	0.059771	0.10094	-0.03475	0.2785	0.19188	-0.061434	0.28938	0.17729	-0.046816	-0.15316	-0.008669	-0.046816	0.031938	-0.008669	0	0	0	-0.13709	-0.025643	0.052128	-0.14381	0.080369	0.10628	-0.11162	-0.069933	0.15352
432	4.0612	-0.11245	0.059796	0.1009	-0.034772	0.27874	0.19195	-0.061458	0.28961	0.17733	-0.046816	-0.15316	-0.008669	-0.046816	0.031938	-0.008669	0	0	0	-0.13712	-0.025601	0.052125	-0.14388	0.080417	0.10625	-0.11168	-0.069865	0.15354
433	4.0707	-0.1125	0.059821	0.10086	-0.034766	0.27895	0.19203	-0.061457	0.28982	0.17739	-0.046816	-0.15316	-0.008669	-0.046816	0.031938	-0.008669	0	0	0	-0.13715	-0.025554	0.052122	-0.14395	0.080467	0.10623	-0.11175	-0.0698	0.15356
434	4.0801	-0.11254	0.059844	0.10083	-0.034734	0.27915	0.19212	-0.061428	0.29002	0.17745	-0.046816	-0.15316	-0.008669	-0.046816	0.031938	-0.008669	0	0	0	-0.13718	-0.025503	0.052119	-0.14401	0.08052	0.10622	-0.11181	-0.069735	0.15357
435	4.0895	-0.11257	0.059866	0.1008	-0.034677	0.27934	0.19221	-0.061374	0.2902	0.17753	-0.046816	-0.15316	-0.008669	-0.046816	0.031938	-0.008669	0	0	0	-0.13722	-0.025449	0.052117	-0.14406	0.080576	0.10621	-0.11188	-0.069673	0.15357
436	4.0989	-0.11259	0.059887	0.10078	-0.034594	0.2795	0.19231	-0.061294	0.29037	0.17761	-0.046816	-0.15316	-0.008669	-0.046816	0.031938	-0.008669	0	0	0	-0.13726	-0.025391	0.052115	-0.14411	0.080634	0.1062	-0.11194	-0.069613	0.15357
437	4.1084	-0.11261	0.059907	0.10076	-0.034486	0.27965	0.19242	-0.061189	0.29052	0.17771	-0.046816	-0.15316	-0.008669	-0.046816	0.031938	-0.008669	0	0	0	-0.1373	-0.025329	0.052113	-0.14415	0.080695	0.1062	-0.11201	-0.069554	0.15357
438	4.1178	-0.11262	0.059926	0.10074	-0.034354	0.27978	0.19254	-0.061059	0.29066	0.17781	-0.046816	-0.15316	-0.008669	-0.046816	0.031938	-0.008669	0	0	0	-0.13734	-0.025264	0.052111	-0.14419	0.080758	0.10621	-0.11208	-0.069498	0.15357
439	4.1272	-0.11262	0.059945	0.10072	-0.034197	0.27989	0.19267	-0.060904	0.29079	0.17793	-0.046816	-0.15316	-0.008669	-0.046816	0.031938	-0.008669	0	0	0	-0.13739	-0.025195	0.05211	-0.14422	0.080824	0.10621	-0.11215	-0.069443	0.15356
440	4.1366	-0.11262	0.059962	0.10071	-0.034016	0.27999	0.1928	-0.060725	0.2909	0.17805	-0.046816	-0.15316	-0.008669	-0.046816	0.031938	-0.008669	0	0	0	-0.13744	-0.025124	0.052109	-0.14424	0.080891	0.10623	-0.11222	-0.069391	0.15355
441	4.1461	-0.11261	0.059979	0.1007	-0.033811	0.28007	0.19294	-0.060521	0.291	0.17818	-0.046816	-0.15316	-0.008669	-0.046816	0.031938	-0.008669	0	0	0	-0.13749	-0.025049	0.052108	-0.14426	0.080961	0.10625	-0.11229	-0.06934	0.15353
442	4.1555	-0.11259	0.059995	0.10069	-0.033583	0.28014	0.19308	-0.060294	0.29108	0.17832	-0.046816	-0.15316	-0.008669	-0.046816	0.031938	-0.008669	0	0	0	-0.13754	-0.024971	0.052108	-0.14427	0.081032	0.10627	-0.11237	-0.069292	0.15352
443	4.1649	-0.11257	0.06001	0.10068	-0.033333	0.28019	0.19323	-0.060044	0.29116	0.17846	-0.046816	-0.15316	-0.008669	-0.046816	0.031938	-0.008669	0	0	0	-0.1376	-0.02489	0.052107	-0.14428	0.081105	0.10629	-0.11244	-0.069246	0.1535
444	4.1743	-0.11254	0.060025	0.10068	-0.03306	0.28023	0.19339	-0.05977	0.29122	0.17862	-0.046816	-0.15316	-0.008669	-0.046816	0.031938	-0.008669	0	0	0	-0.13766	-0.024806	0.052107	-0.14428	0.081179	0.10632	-0.11252	-0.069201	0.15347
445	4.1837	-0.1125	0.060039	0.10068	-0.032765	0.28025	0.19355	-0.059474	0.29127	0.17878	-0.046816	-0.15316	-0.008669	-0.046816	0.031938	-0.008669	0	0	0	-0.13772	-0.02472	0.052107	-0.14427	0.081255	0.10636	-0.1126	-0.069159	0.15345
446	4.1932	-0.11246	0.060052	0.10068	-0.032448	0.28026	0.19372	-0.059155	0.29131	0.17895	-0.046816	-0.15316	-0.008669	-0.046816	0.031938	-0.008669	0	0	0	-0.13779	-0.024631	0.052108	-0.14426	0.081333	0.1064	-0.11268	-0.069119	0.15342
447	4.2026	-0.11241	0.060065	0.10068	-0.032109	0.28026	0.19389	-0.058814	0.29134	0.17913	-0.046816	-0.15316	-0.008669	-0.046816	0.031938	-0.008669	0	0	0	-0.13785	-0.02454	0.052108	-0.14424	0.081411	0.10644	-0.11276	-0.069082	0.15339
448	4.212	-0.11236	0.060078	0.10069	-0.03175	0.28024	0.19407	-0.058451	0.29135	0.17931	-0.046816	-0.15316	-0.008669	-0.046816	0.031938	-0.008669	0	0	0	-0.13792	-0.024446	0.052109	-0.14422	0.081491	0.10648	-0.11284	-0.069046	0.15336
449	4.2214	-0.1123	0.06009	0.1007	-0.03137	0.28022	0.19426	-0.058067	0.29136	0.1795	-0.046816	-0.15316	-0.008669	-0.046816	0.031938	-0.008669	0	0	0	-0.13799	-0.02435	0.05211	-0.14419	0.081571	0.10653	-0.11293	-0.069013	0.15332
450	4.2309	-0.11224	0.060102	0.10071	-0.03097	0.28017	0.19444	-0.057662	0.29136	0.17969	-0.046816	-0.15316	-0.008669	-0.046816	0.031938	-0.008669	0	0	0	-0.13807	-0.024252	0.052111	-0.14415	0.081653	0.10659	-0.11301	-0.068983	0.15329
451	4.2403	-0.11217	0.060114	0.10072	-0.03055	0.28012	0.19463	-0.057236	0.29135	0.17989	-0.046816	-0.15316	-0.008669	-0.046816	0.031938	-0.008669	0	0	0	-0.13814	-0.024152	0.052112	-0.14411	0.081735	0.10664	-0.1131	-0.068954	0.15325
452	4.2497	-0.1121	0.060125	0.10074	-0.03011	0.28006	0.19483	-0.056789	0.29133	0.1801	-0.046816	-0.15316	-0.008669	-0.046816	0.031938	-0.008669	0	0	0	-0.13822	-0.02405	0.052113	-0.14406	0.081818	0.1067	-0.11319	-0.068928	0.15321
453	4.2591	-0.11202	0.060136	0.10075	-0.029651	0.27998	0.19503	-0.056322	0.2913	0.18031	-0.046816	-0.15316	-0.008669	-0.046816	0.031938	-0.008669	0	0	0	-0.1383	-0.023946	0.052115	-0.14401	0.081901	0.10676	-0.11327	-0.068904	0.15317
454	4.2686	-0.11193	0.060147	0.10077	-0.029174	0.2799	0.19523	-0.055836	0.29126	0.18053	-0.046816	-0.15316	-0.008669	-0.046816	0.031938	-0.008669	0	0	0	-0.13838	-0.023841	0.052116	-0.14395	0.081985	0.10683	-0.11337	-0.068883	0.15312
455	4.278	-0.11184	0.060158	0.10079	-0.028678	0.2798	0.19544	-0.05533	0.29121	0.18075	-0.046816	-0.15316	-0.008669	-0.046816	0.031938	-0.008669	0	0	0	-0.13846	-0.023734	0.052118	-0.14389	0.082069	0.10689	-0.11346	-0.068865	0.15308
456	4.2874	-0.11175	0.060169	0.10081	-0.028164	0.2797	0.19564	-0.054804	0.29116	0.18097	-0.046816	-0.15316	-0.008669	-0.046816	0.031938	-0.008669	0	0	0	-0.13855	-0.023625	0.05212	-0.14382	0.082153	0.10696	-0.11355	-0.068848	0.15303
457	4.2968	-0.11165	0.06018	0.10083	-0.027632	0.27959	0.19585	-0.05426	0.2911	0.1812	-0.046816	-0.15316	-0.008669	-0.046816	0.031938	-0.008669	0	0	0	-0.13864	-0.023515	0.052122	-0.14374	0.082237	0.10704	-0.11365	-0.068835	0.15299
458	4.3062	-0.11155	0.060192	0.10085	-0.027083	0.27946	0.19607	-0.053697	0.29103	0.18143	-0.046816	-0.15316	-0.008669	-0.046816	0.031938	-0.008669	0	0	0	-0.13873	-0.023404	0.052124	-0.14366	0.082321	0.10711	-0.11375	-0.068823	0.15294
459	4.3157	-0.11145	0.060203	0.10088	-0.026517	0.27933	0.19628	-0.053116	0.29095	0.18167	-0.046816	-0.15316	-0.008669	-0.046816	0.031938	-0.008669	0	0	0	-0.13882	-0.023292	0.052126	-0.14357	0.082405	0.10719	-0.11384	-0.068815	0.15289
460	4.3251	-0.11134	0.060214	0.10091	-0.025934	0.27919	0.1965	-0.052517	0.29087	0.18191	-0.046816	-0.15316	-0.008669	-0.046816	0.031938	-0.008669	0	0	0	-0.13891	-0.023178	0.052129	-0.14348	0.082488	0.10727	-0.11394	-0.068809	0.15284
461	4.3345	-0.11122	0.060226	0.10093	-0.025335	0.27905	0.19672	-0.051901	0.29078	0.18215	-0.046816	-0.15316	-0.008669	-0.046816	0.031938	-0.008669	0	0	0	-0.13901	-0.023064	0.052131	-0.14338	0.082571	0.10735	-0.11405	-0.068806	0.15279
462	4.3439	-0.11111	0.060238	0.10096	-0.02472	0.27889	0.19694	-0.051267	0.29069	0.1824	-0.046816	-0.15316	-0.008669	-0.046816	0.031938	-0.008669	0	0	0	-0.1391	-0.022949	0.052134	-0.14328	0.082653	0.10744	-0.11415	-0.068805	0.15274
463	4.3534	-0.11099	0.06025	0.10099	-0.02409	0.27873	0.19716	-0.050616	0.29059	0.18264	-0.046816	-0.15316	-0.008669	-0.046816	0.031938	-0.008669	0	0	0	-0.1392	-0.022834	0.052136	-0.14317	0.082735	0.10752	-0.11425	-0.068807	0.15269
464	4.3628	-0.11086	0.060263	0.10102	-0.023445	0.27856	0.19738	-0.049949	0.29049	0.18289	-0.046816	-0.15316	-0.008669	-0.046816	0.031938	-0.008669	0	0	0	-0.1393	-0.022717	0.052139	-0.14305	0.082815	0.10761	-0.11436	-0.068812	0.15264
465	4.3722	-0.11074	0.060276	0.10106	-0.022785	0.27839	0.1976	-0.049265	0.29038	0.18314	-0.046816	-0.15316	-0.008669	-0.046816	0.031938	-0.008669	0	0	0	-0.1394	-0.022601	0.052141	-0.14293	0.082895	0.1077	-0.11447	-0.06882	0.15258
466	4.3816	-0.11061	0.060289	0.10109	-0.02211	0.27821	0.19782	-0.048565	0.29026	0.18339	-0.046816	-0.15316	-0.008669	-0.046816	0.031938	-0.008669	0	0	0	-0.1395	-0.022483	0.052144	-0.14281	0.082974	0.10779	-0.11458	-0.068831	0.15253
467	4.391	-0.11047	0.060303	0.10112	-0.021422	0.27802	0.19804	-0.04785	0.29015	0.18365	-0.046816	-0.15316	-0.008669	-0.046816	0.031938	-0.008669	0	0	0	-0.13961	-0.022366	0.052147	-0.14268	0.083051	0.10789	-0.11469	-0.068844	0.15248
468	4.4005	-0.11034	0.060318	0.10116	-0.020719	0.27783	0.19826	-0.047119	0.29003	0.1839	-0.046816	-0.15316	-0.008669	-0.046816	0.031938	-0.008669	0	0	0	-0.13971	-0.022249	0.05215	-0.14254	0.083127	0.10798	-0.1148	-0.06886	0.15243
469	4.4099	-0.1102	0.060333	0.10119	-0.020004	0.27764	0.19849	-0.046374	0.2899	0.18416	-0.046816	-0.15316	-0.008669	-0.046816	0.031938	-0.008669	0	0	0	-0.13982	-0.022131	0.052153	-0.1424	0.083202	0.10808	-0.11492	-0.068879	0.15238
470	4.4193	-0.11006	0.060349	0.10123	-0.019276	0.27744	0.19871	-0.045613	0.28978	0.18441	-0.046816	-0.15316	-0.008669	-0.046816	0.031938	-0.008669	0	0	0	-0.13993	-0.022014	0.052156	-0.14225	0.083275	0.10817	-0.11504	-0.068901	0.15233
471	4.4287	-0.10992	0.060366	0.10126	-0.018535	0.27724	0.19892	-0.044839	0.28965	0.18466	-0.046816	-0.15316	-0.008669	-0.046816	0.031938	-0.008669	0	0	0	-0.14004	-0.021897	0.052158	-0.1421	0.083347	0.10827	-0.11516	-0.068926	0.15228
472	4.4382	-0.10977	0.060383	0.1013	-0.017782	0.27703	0.19914	-0.04405	0.28952	0.18492	-0.046816	-0.15316	-0.008669	-0.046816	0.031938	-0.008669	0	0	0	-0.14015	-0.02178	0.052161	-0.14194	0.083416	0.10837	-0.11528	-0.068954	0.15223
473	4.4476	-0.10963	0.060402	0.10133	-0.017017	0.27682	0.19936	-0.043248	0.28939	0.18517	-0.046816	-0.15316	-0.008669	-0.046816	0.031938	-0.008669	0	0	0	-0.14026	-0.021664	0.052164	-0.14178	0.083484	0.10847	-0.1154	-0.068985	0.15218
474	4.457	-0.10948	0.060421	0.10137	-0.016241	0.27661	0.19957	-0.042432	0.28925	0.18543	-0.046816	-0.15316	-0.008669	-0.046816	0.031938	-0.008669	0	0	0	-0.14037	-0.021548	0.052167	-0.14161	0.083549	0.10857	-0.11552	-0.06902	0.15213
475	4.4664	-0.10933	0.060441	0.10141	-0.015453	0.2764	0.19979	-0.041603	0.28912	0.18568	-0.046816	-0.15316	-0.008669	-0.046816	0.031938	-0.008669	0	0	0	-0.14049	-0.021432	0.05217	-0.14143	0.083613	0.10867	-0.11565	-0.069057	0.15209
476	4.4759	-0.10918	0.060462	0.10145	-0.014655	0.27619	0.2	-0.040761	0.28898	0.18593	-0.046816	-0.15316	-0.008669	-0.046816	0.031938	-0.008669	0	0	0	-0.1406	-0.021318	0.052173	-0.14125	0.083674	0.10877	-0.11577	-0.069097	0.15204
